<?xml version="1.0" standalone="no"?>
<!DOCTYPE svg PUBLIC "-//W3C//DTD SVG 1.1//EN" "http://www.w3.org/Graphics/SVG/1.1/DTD/svg11.dtd" >
<svg xmlns="http://www.w3.org/2000/svg">
<metadata></metadata>
<defs>
<font id="edson_comics_boldbold" horiz-adv-x="1108" >
<font-face units-per-em="2048" ascent="1638" descent="-410" />
<missing-glyph horiz-adv-x="714" />
<glyph horiz-adv-x="0" />
<glyph unicode="&#xd;" horiz-adv-x="508" />
<glyph unicode=" "  horiz-adv-x="714" />
<glyph unicode="&#x09;" horiz-adv-x="714" />
<glyph unicode="&#xa0;" horiz-adv-x="714" />
<glyph unicode="!" horiz-adv-x="720" d="M192 149q30 158 158 158q107 0 140 -130v-37q-37 -140 -130 -140h-47q-91 0 -121 149zM192 1340q0 62 102 84h66q93 0 93 -214q37 -407 37 -624v-28q-16 -139 -103 -139h-27q-131 0 -149 177q-19 196 -19 744z" />
<glyph unicode="&#x22;" horiz-adv-x="732" d="M157 1291v32q0 127 128 236l24 4h16q34 0 48 -52q0 -30 -96 -144q-17 -41 -20 -80q24 -60 24 -80q-9 -40 -40 -40h-8q-76 22 -76 124zM333 1275q0 142 136 260q15 8 32 8h4q52 -7 52 -44v-20q0 -21 -92 -128q-28 -44 -28 -96q20 -36 20 -68q-5 -40 -36 -40h-16 q-72 26 -72 128z" />
<glyph unicode="#" horiz-adv-x="1492" d="M28 504v27q0 85 140 100h187q14 0 40 100h-6q-105 -13 -261 -13q-80 26 -80 80v26q0 114 274 114q88 7 147 7q90 340 153 340h47q94 -21 94 -120q0 -9 -67 -200h13q235 6 281 20q76 274 140 274h40q67 0 93 -101v-13q0 -15 -40 -147h107q87 -23 87 -80v-33 q0 -107 -267 -107q-7 0 -7 -7q0 -11 -40 -120h160q107 -17 107 -107q0 -77 -127 -107h-200q-13 0 -87 -240q-46 -47 -73 -47h-34q-93 21 -93 120q47 144 47 160h-7q-164 -6 -260 -6h-21q-54 -247 -140 -247h-26q-68 0 -94 100v13q0 14 33 127h-160q-100 16 -100 87zM589 637 h7q205 7 280 7q7 12 40 120h-7q-12 -6 -20 -6q-50 0 -267 -14q0 -20 -33 -107z" />
<glyph unicode="$" d="M121 1074q0 152 115 258q113 104 292 120v88h83v-91q52 -6 89 -22q57 -26 87 -26q16 0 16 53h71l99 -299h-78q-108 139 -199 179q-46 21 -85 31v-507l54 -18q352 -109 352 -433q0 -182 -123 -298q-109 -102 -283 -123v-229h-83v225q-101 3 -167 24q-77 24 -107 24 q-28 0 -36 -49h-84v345h83q38 -168 133 -217q82 -42 178 -48v623q-31 9 -64 16q-342 75 -343 374zM331 1132q0 -145 197 -239v480q-72 -6 -130 -59q-67 -61 -67 -181v-1zM611 68q66 17 113 64q83 83 83 233q0 196 -196 287v-584z" />
<glyph unicode="%" horiz-adv-x="1756" d="M83 1146v35q0 329 370 428h58q196 0 255 -266v-47q0 -287 -324 -416l-81 -12q-278 53 -278 278zM245 116v23q0 58 475 613q617 814 763 949q21 12 47 12h34q16 0 58 -58v-12q0 -63 -648 -844q-475 -631 -602 -730q-19 -11 -58 -11q-47 16 -69 58zM245 1215 q18 -162 139 -162h11q166 0 209 220q-20 162 -151 162q-149 0 -208 -220zM986 312v12q75 428 393 428q236 0 278 -312v-12q-67 -428 -393 -428h-12q-229 0 -266 312zM1148 347q18 -162 127 -162h23q163 0 197 220q-18 162 -139 162q-171 0 -208 -220z" />
<glyph unicode="&#x26;" horiz-adv-x="1773" d="M185 370v109q0 178 378 412q-75 221 -75 362v8q0 185 159 185h68q227 0 386 -269l17 -101q0 -145 -235 -303v-8q60 -119 168 -261q76 35 134 202q44 42 76 42h25q106 -21 126 -126v-42q0 -42 -159 -252q104 -55 176 -59q59 -60 59 -101v-8q0 -160 -134 -160h-34 q-102 0 -328 143q-155 -135 -328 -135h-33q-318 0 -446 362zM454 420q0 -104 177 -143h8q88 0 193 68v8q-168 203 -168 252h-17q-78 0 -176 -126q0 -16 -17 -59zM757 1143q0 -18 16 -126h9q29 11 50 76q-38 67 -75 67v-17z" />
<glyph unicode="'" horiz-adv-x="406" d="M38 1196q0 197 189 360q20 11 44 11h6q72 -9 72 -61v-27q0 -30 -128 -178q-39 -61 -39 -133q28 -51 28 -95q-8 -55 -50 -55h-22q-100 36 -100 178z" />
<glyph unicode="(" horiz-adv-x="864" d="M252 601q2 208 56 397q55 197 169 375q69 109 125 172l35 38h169q-8 -15 -27 -37q-31 -34 -44 -52q-111 -169 -165 -370t-54 -444q0 -40 1 -79q-1 -38 -1 -79q0 -244 54 -443t165 -367q13 -18 44 -53q19 -22 27 -39h-169l-35 39q-56 64 -125 171q-114 178 -170 375 q-53 188 -55 396z" />
<glyph unicode=")" horiz-adv-x="864" d="M58 -380q8 16 27 38q31 35 44 53q111 168 165 367.5t54 442.5q0 41 -1 80q1 39 1 79q0 243 -54 443.5t-165 370.5q-12 17 -44 51q-19 23 -27 38h169l35 -38q56 -64 125 -172q114 -178 169 -375q54 -189 56 -397q-2 -208 -55 -397q-56 -196 -170 -374q-69 -108 -125 -171 l-35 -39h-169z" />
<glyph unicode="*" horiz-adv-x="1092" d="M135 1281v36q0 77 109 94h51l-8 37v29q21 123 124 123h7q53 0 138 -109q123 131 181 131h14q88 0 109 -109q0 -75 -80 -116q0 -12 102 -36q65 -49 65 -95v-43q0 -73 -116 -94h-14l7 -29q-26 -131 -109 -131h-36q-51 0 -181 174q-90 -109 -160 -109h-7q-84 0 -109 116 q7 13 7 29v8q-94 27 -94 94z" />
<glyph unicode="+" d="M14 716v63q19 94 95 94h299v268q0 61 94 79h48q71 0 110 -134q-8 -118 -8 -197q229 24 315 24q87 -38 87 -103v-71q0 -88 -134 -110l-252 -8v-8q0 -112 24 -244q-16 -134 -126 -134h-48q-79 0 -102 189l-16 189l-39 -8h-55q-79 0 -190 -8q-102 35 -102 119z" />
<glyph unicode="," horiz-adv-x="625" d="M15 -317q0 51 132 113q138 133 138 314q36 107 88 107h31q78 0 88 -138v-50q0 -205 -314 -396q-49 -25 -81 -25h-25q-57 8 -57 57v18z" />
<glyph unicode="-" horiz-adv-x="774" d="M14 438v81q29 116 117 116h556q117 -29 117 -116v-81q-29 -117 -117 -117h-556q-117 29 -117 117z" />
<glyph unicode="." horiz-adv-x="420" d="M92 103v40q28 115 97 115h41q97 -37 97 -103v-40q-28 -115 -97 -115h-41q-97 37 -97 103z" />
<glyph unicode="/" horiz-adv-x="641" d="M-85 132v47q494 1192 551 1264q40 38 76 38h48q123 -32 123 -124v-47q-494 -1193 -551 -1264q-40 -38 -76 -38h-47q-124 31 -124 124z" />
<glyph unicode="0" horiz-adv-x="1033" d="M0 505v113q0 520 360 782q90 52 186 52h113q281 0 371 -340q10 -38 10 -93v-92q0 -434 -391 -814q-141 -113 -268 -113h-62q-269 0 -319 505zM257 597q18 -278 134 -278h11q258 0 381 546v62q0 216 -206 216q-233 0 -309 -402q-11 -87 -11 -144z" />
<glyph unicode="1" horiz-adv-x="705" d="M36 834v20q0 52 185 248q154 265 258 329h51q85 0 113 -113v-41q-85 -243 -154 -577q-41 -237 -82 -638q-58 -62 -124 -62h-31q-88 0 -123 134l103 545l-52 -10h-10q-134 32 -134 165z" />
<glyph unicode="2" horiz-adv-x="883" d="M50 120v61q0 51 369 513q133 202 133 277v20q0 93 -20 175q-31 0 -123 -144q-64 -20 -103 -20q-112 47 -112 143q141 297 328 297h41q201 0 246 -369v-71q0 -252 -287 -636q94 20 215 20q66 0 82 -92v-61q0 -164 -277 -164q-141 0 -348 -62h-41q-82 0 -103 113z" />
<glyph unicode="3" horiz-adv-x="833" d="M47 126v58q0 89 135 106q38 -19 107 -19h48q184 0 184 232v38q-25 49 -87 49q-46 -17 -107 -29q-135 15 -135 116v9q0 69 145 233q0 12 106 183v10h-9q-179 -87 -213 -87h-29q-97 19 -97 97v48q0 112 503 261h77q117 -68 117 -164v-39q0 -56 -223 -377q232 -105 232 -348 v-39q0 -325 -358 -454q-37 -10 -77 -10h-68q-251 17 -251 126z" />
<glyph unicode="4" horiz-adv-x="990" d="M44 598v48l342 740q50 38 85 38h19q89 0 105 -133q0 -36 -209 -484v-29q63 0 294 -9l10 95v95q0 389 85 389q0 16 66 19q79 0 105 -104v-38q0 -250 -105 -1159q-49 -66 -104 -66h-47q-95 0 -95 95q0 67 28 389h-456q-123 0 -123 114z" />
<glyph unicode="5" horiz-adv-x="954" d="M47 115v47q0 94 134 106l134 -29q200 25 200 201v19q0 124 -114 124q-32 -6 -153 -124h-29q-119 0 -143 134q0 96 114 592q-16 0 -28 57q0 99 143 134q368 48 497 48h48q67 -42 67 -96v-57q0 -134 -297 -134h-152q-23 0 -87 -306l115 20q264 0 296 -364q0 -353 -324 -477 q-38 -10 -77 -10h-86q-174 0 -258 115z" />
<glyph unicode="6" horiz-adv-x="947" d="M7 359v73q0 243 527 971q17 0 43 21h63q87 0 116 -116q0 -64 -338 -538q-21 -45 -21 -74q133 32 232 32h53q156 0 243 -222v-95q0 -213 -317 -369q-93 -42 -200 -42h-95q-259 0 -306 359zM281 327q0 -28 85 -42h52q201 36 201 158q-19 11 -42 11h-53q-172 0 -243 -95v-32 z" />
<glyph unicode="7" horiz-adv-x="1018" d="M22 541v49q0 107 425 251q0 23 97 319h-10q-82 -9 -135 -9h-58q-203 0 -203 116v38q27 126 106 126h406q213 0 213 -116v-10q-135 -346 -135 -415l135 29h39q65 0 106 -78v-58q0 -158 -300 -184q-125 0 -125 -48q-29 -532 -68 -532l-29 -19h-77q-126 0 -126 174 q0 146 48 329h-19q-129 -68 -193 -68q-97 41 -97 106z" />
<glyph unicode="8" horiz-adv-x="912" d="M9 321v29q0 159 233 408q-165 151 -165 282q0 279 350 399h107q277 0 370 -272v-68q0 -118 -273 -370q166 -180 166 -408q0 -233 -234 -321h-87q-303 0 -457 263zM272 311q68 -48 165 -48q87 11 87 29q-45 223 -107 272q-145 -87 -145 -253zM369 1079q0 -76 107 -107 q155 47 155 156q-39 78 -107 78q-155 -43 -155 -88v-39z" />
<glyph unicode="9" horiz-adv-x="730" d="M29 932v76q0 294 375 423h96q230 -28 230 -182v-20q0 -90 -144 -653l-38 -326q19 -93 19 -183q-58 -67 -106 -67h-67q-76 0 -106 106q10 103 77 461h-77q-197 0 -259 365zM231 970q0 -113 105 -144h20q63 80 124 384v19h-9q-240 -81 -240 -259z" />
<glyph unicode=":" horiz-adv-x="625" d="M114 177v69q43 153 153 153h17q134 0 171 -179v-51q-29 -162 -154 -162h-25q-125 0 -162 170zM114 791v51q28 162 153 162h26q125 0 162 -170v-69q-43 -153 -154 -153h-17q-133 0 -170 179z" />
<glyph unicode=";" horiz-adv-x="625" d="M15 -234q79 189 177 520q54 49 118 49q127 -32 127 -127v-20q0 -168 -177 -432q-96 -98 -147 -98h-19q-79 0 -79 79v29zM119 815q0 157 173 197h32q124 0 165 -172v-58q-46 -172 -156 -172h-41q-137 0 -173 205z" />
<glyph unicode="&#x3c;" d="M80 683v65l948 524v-207l-637 -350l637 -347v-206z" />
<glyph unicode="=" d="M80 481v160h948v-160h-948zM80 793v160h948v-160h-948z" />
<glyph unicode="&#x3e;" d="M80 162v206l637 347l-637 350v207l948 -524v-65z" />
<glyph unicode="?" horiz-adv-x="840" d="M-21 1108v35q0 105 262 262q61 17 105 17h70q354 0 472 -375q17 -88 17 -158v-17q0 -150 -288 -271q-66 -17 -123 -17h-26q9 -131 9 -193q-46 -96 -122 -96v-8q88 0 113 -140v-9q-17 -131 -113 -131h-35q-96 0 -123 140v26q30 114 105 114v17q-96 0 -96 280v148 q0 149 288 149q126 30 131 61v35q-32 157 -244 157h-9q-94 0 -236 -157h-52q-83 0 -105 131z" />
<glyph unicode="@" horiz-adv-x="2111" d="M100 508q0 236 124.5 459t358.5 349.5t489 126.5q391 0 646.5 -238t255.5 -567q0 -263 -183 -439q-144 -155 -362 -176q-86 0 -162 70q-21 -38 -74.5 -64t-152.5 -26q-144 0 -283.5 102t-140.5 238q0 79 50.5 159t151.5 128q94 45 193 50q45 4 82.5 29t37.5 82 q0 105 -39.5 139.5t-99.5 35.5q-72 0 -156 -44.5t-89 -126.5h-87l-1 115q0 20 105 61.5t237 41.5q113 0 238.5 -61t134.5 -180v-565q0 -117 61 -122q113 8 195 182q80 155 80 386q-20 342 -226 540q-186 179 -441 179q-264 0 -473 -241.5t-209 -603.5t231.5 -624t501.5 -262 q281 0 595 251v-120q-315 -199 -617 -199q-260 0 -493.5 130.5t-356 349.5t-122.5 455zM851 357q0 -132 71.5 -210t118.5 -78q48 0 69 34.5t21 125.5v401q-65 0 -172.5 -73t-107.5 -200z" />
<glyph unicode="A" horiz-adv-x="940" d="M28 93v19q0 128 352 1116q56 196 167 196h39q105 0 147 -392q10 0 59 -283h29q91 0 108 -147v-49q0 -67 -108 -108l68 -352q-19 -108 -97 -108h-40q-146 0 -146 313q-10 118 -30 118q-284 -84 -284 -147q0 -274 -117 -274h-49q-98 19 -98 98zM410 631h10q130 49 146 49 q-49 210 -49 245h-9q0 -20 -98 -294z" />
<glyph unicode="B" horiz-adv-x="912" d="M16 1308q62 106 155 106q9 0 68 -48q163 58 194 58h145q176 0 252 -291v-67q0 -121 -78 -243v-9q155 -123 155 -242v-68q0 -369 -387 -494q-67 -10 -107 -10h-165q-203 0 -203 107q-29 1055 -29 1201zM258 785h10q310 152 310 281q-17 96 -87 96h-20q-97 0 -213 -96v-281 zM268 484q10 -235 10 -271h48q300 45 300 126q49 52 49 155q0 116 -126 116h-29q-83 0 -252 -126z" />
<glyph unicode="C" horiz-adv-x="997" d="M8 474v141q0 261 312 675q149 141 222 141h61q144 0 231 -242v-20q-13 -91 -90 -91h-20q-59 0 -132 111q-322 -314 -322 -554v-10q36 -333 191 -333q168 0 273 172q0 56 121 70h20q100 -20 100 -101v-10q0 -136 -262 -342q-148 -81 -252 -81h-40q-310 0 -413 474z" />
<glyph unicode="D" horiz-adv-x="919" d="M21 1301q30 97 116 97q45 0 88 -30h19q67 49 126 49h49q416 0 485 -544v-126q0 -407 -427 -679l-97 -10h-39q-59 -58 -97 -58h-29q-136 0 -136 349q-58 723 -58 952zM264 1097q29 -571 68 -825q291 138 291 466v106q-28 292 -175 292q0 9 -68 19q-116 -18 -116 -58z" />
<glyph unicode="E" horiz-adv-x="791" d="M12 180v995q0 92 208 133q103 57 361 123h28q89 0 123 -133v-9q0 -103 -265 -152q0 -7 -228 -66l10 -48q0 -66 9 -274q284 132 332 132h29q66 -46 66 -104v-19q0 -145 -218 -180q-201 -104 -218 -104v-180q422 208 445 208h19q76 0 76 -94q0 -194 -180 -228 q-453 -180 -502 -180h-38q-49 0 -57 180z" />
<glyph unicode="F" horiz-adv-x="912" d="M60 73q0 162 9 1164q0 94 128 110h19q12 0 46 -45q270 137 330 137h9q81 0 119 -137v-19q0 -87 -348 -192q0 -16 -92 -37v-211q420 165 504 165q83 -69 83 -119v-37q0 -89 -266 -137q-304 -119 -321 -119v-523q-38 -73 -92 -73h-36q-62 0 -92 73z" />
<glyph unicode="G" horiz-adv-x="1054" d="M12 370v105q0 308 389 797q197 161 342 161h57q203 0 247 -313v-104q0 -129 -162 -152q-104 33 -104 104v124l-10 66h-19q-143 0 -398 -446q-16 -51 -29 -161q0 -276 171 -276q266 50 266 171q-19 31 -19 48h-10q-52 0 -227 -114q-16 -10 -48 -10h-9q-95 55 -95 152 q0 192 342 256h37q223 0 314 -246v-95q0 -282 -380 -418q-37 -19 -104 -19h-76q-303 0 -466 304z" />
<glyph unicode="H" horiz-adv-x="898" d="M27 234v486q0 160 19 448q-9 123 -9 146q42 117 126 117h49q45 -19 88 -88q-30 -309 -30 -623h10q208 39 302 69q10 389 10 535q0 49 77 107h59q88 -13 88 -88q0 -133 -10 -477q68 -101 68 -136v-29q0 -11 -58 -68v-253q68 -58 68 -68v-49q-50 -224 -156 -224h-20 q-136 0 -136 302v117l10 68l-312 -98q10 -131 10 -194v-127q0 -107 -126 -107h-30q-97 0 -97 234z" />
<glyph unicode="I" horiz-adv-x="327" d="M35 68v20q39 865 39 1255q46 88 107 88h19q77 0 108 -107q-20 -292 -39 -1266q-48 -58 -59 -58h-68q-59 0 -107 68z" />
<glyph unicode="J" horiz-adv-x="940" d="M22 203v55q0 84 111 102q40 0 138 -120q16 -9 37 -9h9q157 0 157 341v64q-9 351 -37 351q-96 -74 -157 -74q-93 0 -129 65v64q221 206 563 388h55q66 0 157 -148v-46q0 -100 -231 -120q0 -9 -27 -9q46 -360 46 -535v-55q0 -371 -258 -499q-83 -18 -120 -18h-37 q-127 0 -277 203z" />
<glyph unicode="K" horiz-adv-x="933" d="M25 1345q37 86 124 86q95 0 95 -401q459 401 525 401h38q115 -26 115 -105v-48q-52 -64 -496 -400q439 -620 496 -716v-28q-22 -134 -124 -134h-29q-88 0 -172 153q-314 423 -314 448h-10v-391q0 -115 -134 -115q-68 0 -104 105q9 205 9 306v171q0 198 -19 668z" />
<glyph unicode="L" horiz-adv-x="720" d="M21 399v895q16 137 107 137h29q98 0 98 -292q19 -451 19 -720q10 -87 10 -108q256 98 302 98h38q88 -49 88 -117v-39q0 -81 -243 -136q-229 -117 -341 -117h-29q-78 0 -78 399z" />
<glyph unicode="M" horiz-adv-x="1190" d="M17 76v58q102 838 219 1230q41 38 77 38h19q118 0 172 -372q38 -102 57 -238h9q208 639 306 639h38q99 0 200 -935q67 -223 67 -286v-57q-12 -86 -86 -86h-48q-128 0 -162 324q-46 429 -67 429q-142 -505 -210 -505l-57 -10q-130 0 -181 372q-12 0 -29 124h-9 q-76 -443 -115 -753q-37 -48 -76 -48h-29q-56 0 -95 76z" />
<glyph unicode="N" horiz-adv-x="1005" d="M17 106q163 1287 211 1287l48 38h68q111 -62 211 -442q65 -271 134 -461h10q48 638 48 721q17 9 38 9l-28 39v19q0 78 115 115h19q96 -19 96 -96q-48 -1277 -125 -1277q-57 -39 -105 -39q-162 0 -269 346q-48 128 -144 480h-10q-94 -835 -135 -835l-48 -10h-19 q-115 6 -115 106z" />
<glyph unicode="O" horiz-adv-x="1019" d="M7 382v177q0 333 167 705q133 167 254 167h79q228 0 461 -392q29 -76 29 -137v-30q0 -288 -373 -705q-182 -163 -294 -167h-88q-184 0 -235 382zM262 510q0 -160 68 -196h10q197 0 383 431q19 38 19 108q0 135 -235 264h-39q-161 0 -206 -529v-78z" />
<glyph unicode="P" horiz-adv-x="904" d="M13 85v1054q0 137 104 207h65q196 85 236 85h47q263 0 414 -358q19 -37 19 -103v-94q0 -192 -527 -490h-132v-151q0 -235 -113 -235h-47q-66 30 -66 85zM211 668q25 -75 47 -75h28q367 167 367 405q-34 151 -245 151q-155 -12 -178 -57q-10 -395 -19 -424z" />
<glyph unicode="Q" horiz-adv-x="1225" d="M21 373v90q0 456 351 842q150 120 250 120h80q261 0 461 -330q40 -97 40 -191v-70q0 -308 -340 -651q150 -305 150 -361q-50 -100 -150 -100h-30q-85 0 -191 301q-90 -30 -120 -30h-90q-411 65 -411 380zM261 463q27 -200 201 -200h100q-50 177 -50 190v40q50 81 140 81 q43 -36 120 -161q191 233 191 441q0 214 -261 301l-40 10q-258 0 -391 -571q-10 -49 -10 -131z" />
<glyph unicode="R" horiz-adv-x="1046" d="M7 97v96q97 1151 164 1151q89 48 136 48h19q10 0 10 -9q78 48 164 48h39q348 0 348 -406q0 -233 -329 -426q371 -367 455 -367l29 -39v-48q0 -111 -165 -145h-29q-90 0 -561 503h-9v-348q0 -87 -87 -145h-39q-95 0 -145 87zM307 822q17 0 87 -39q232 125 232 271v29 q-13 97 -97 97h-29q-134 0 -155 -174z" />
<glyph unicode="S" horiz-adv-x="904" d="M10 896v77q0 317 399 448q67 10 107 10h107q198 0 244 -165v-30q0 -91 -127 -97q-131 49 -175 49q-312 -46 -312 -205v-29q0 -64 224 -88q419 -198 419 -506v-48q0 -268 -351 -312h-97q-273 0 -389 224q-10 53 -10 88v9q13 137 117 137q112 0 136 -176q52 -39 88 -39h29 q185 0 185 98q0 200 -429 321q-165 97 -165 234z" />
<glyph unicode="T" horiz-adv-x="819" d="M19 857v39q0 118 302 175v195q0 125 78 165h68q85 0 97 -117q0 -39 -10 -175q120 29 166 29q10 0 29 -10q19 10 29 10q39 -43 39 -49v-97q0 -136 -214 -136q-68 -7 -68 -20q-43 -856 -136 -856q0 -10 -10 -10h-58q-108 16 -108 107v10q0 46 88 662h-10q-113 -39 -175 -39 q-107 39 -107 117z" />
<glyph unicode="U" horiz-adv-x="997" d="M19 202v164q0 394 115 1010q38 48 77 48h29q120 -7 145 -135q-61 -79 -97 -606l-28 -375q375 48 375 86q79 992 134 992l49 9h48q58 0 106 -67v-29q-97 -1000 -97 -1107v-19q0 -144 -173 -144q-38 0 -77 58q-295 -87 -423 -87h-58q-125 0 -125 202z" />
<glyph unicode="V" horiz-adv-x="1075" d="M12 1253v60q0 94 128 118q166 0 296 -898q20 0 20 -79h10q341 912 424 967l69 10h30q89 -13 89 -89v-39l-10 -50l-49 10l29 -39q-237 -510 -503 -1185q-53 -39 -89 -39h-39q-140 0 -277 661q-10 20 -128 592z" />
<glyph unicode="W" horiz-adv-x="1403" d="M13 1278v48q19 106 96 106h29q133 0 173 -568q10 0 49 -404h9q116 568 222 568h38q154 0 299 -645h9q184 1020 260 1020q17 10 39 10h58q96 -57 96 -116v-29q-87 -247 -164 -635q-115 -626 -289 -626h-19q-145 0 -260 462q-13 0 -29 77h-9q-91 -520 -193 -520 q0 -19 -67 -19h-29q-203 0 -251 847q0 51 -67 424z" />
<glyph unicode="X" horiz-adv-x="1218" d="M31 1260v67q16 105 105 105h10q138 0 324 -334q131 -201 143 -201q196 535 315 535h19q105 -16 105 -105q0 -86 -305 -601q65 -90 449 -516v-76q0 -86 -144 -115q-91 0 -439 439h-9q-229 -458 -334 -458h-19q-115 27 -115 115v9q0 33 181 296q125 221 125 229 q0 62 -411 611z" />
<glyph unicode="Y" horiz-adv-x="983" d="M9 1255v19q19 98 98 98h29q121 0 471 -470q139 529 235 529h39q57 0 89 -69v-39q0 -126 -324 -960q-139 -363 -225 -363h-49q-89 66 -89 127q0 23 177 422v68q-127 225 -422 549q-29 38 -29 89z" />
<glyph unicode="Z" horiz-adv-x="1025" d="M10 145v39q0 35 319 493q0 8 300 454v10h-10l-425 -77q-155 22 -155 116v48q0 63 222 126q363 77 532 77h87q87 0 136 -77v-58q0 -48 -474 -706q-128 -200 -184 -319h19q79 0 126 -10q93 10 184 10h29q94 0 116 -145q-12 -126 -97 -126h-338q-377 0 -377 116 q-10 0 -10 29z" />
<glyph unicode="[" horiz-adv-x="758" />
<glyph unicode="\" horiz-adv-x="925" d="M71 1266v46q30 120 120 120h46q108 0 268 -471q150 -312 342 -795v-46q-30 -120 -120 -120h-46q-108 0 -268 471q-176 372 -342 795z" />
<glyph unicode="]" horiz-adv-x="758" />
<glyph unicode="^" horiz-adv-x="1014" d="M21 1495v62q0 70 369 497q29 62 90 62h100q112 0 302 -286q157 -159 157 -236v-62q0 -133 -168 -162q-119 0 -313 299h-11q-261 -336 -325 -336h-56q-145 41 -145 162z" />
<glyph unicode="_" horiz-adv-x="1161" d="M64 34q27 106 106 106h828q106 -27 106 -106v-73q-27 -105 -106 -105h-828q-106 26 -106 105v73z" />
<glyph unicode="`" horiz-adv-x="598" d="M44 1344v41q26 105 105 105h25q79 0 226 -203q98 -77 98 -129v-41q-27 -105 -106 -105h-24q-79 0 -227 203q-97 77 -97 129z" />
<glyph unicode="a" horiz-adv-x="940" d="M28 93v19q0 128 352 1116q56 196 167 196h39q105 0 147 -392q10 0 59 -283h29q91 0 108 -147v-49q0 -67 -108 -108l68 -352q-19 -108 -97 -108h-40q-146 0 -146 313q-10 118 -30 118q-284 -84 -284 -147q0 -274 -117 -274h-49q-98 19 -98 98zM410 631h10q130 49 146 49 q-49 210 -49 245h-9q0 -20 -98 -294z" />
<glyph unicode="b" horiz-adv-x="912" d="M16 1308q62 106 155 106q9 0 68 -48q163 58 194 58h145q176 0 252 -291v-67q0 -121 -78 -243v-9q155 -123 155 -242v-68q0 -369 -387 -494q-67 -10 -107 -10h-165q-203 0 -203 107q-29 1055 -29 1201zM258 785h10q310 152 310 281q-17 96 -87 96h-20q-97 0 -213 -96v-281 zM268 484q10 -235 10 -271h48q300 45 300 126q49 52 49 155q0 116 -126 116h-29q-83 0 -252 -126z" />
<glyph unicode="c" horiz-adv-x="997" d="M8 474v141q0 261 312 675q149 141 222 141h61q144 0 231 -242v-20q-13 -91 -90 -91h-20q-59 0 -132 111q-322 -314 -322 -554v-10q36 -333 191 -333q168 0 273 172q0 56 121 70h20q100 -20 100 -101v-10q0 -136 -262 -342q-148 -81 -252 -81h-40q-310 0 -413 474z" />
<glyph unicode="d" horiz-adv-x="919" d="M21 1301q30 97 116 97q45 0 88 -30h19q67 49 126 49h49q416 0 485 -544v-126q0 -407 -427 -679l-97 -10h-39q-59 -58 -97 -58h-29q-136 0 -136 349q-58 723 -58 952zM264 1097q29 -571 68 -825q291 138 291 466v106q-28 292 -175 292q0 9 -68 19q-116 -18 -116 -58z" />
<glyph unicode="e" horiz-adv-x="791" d="M12 180v995q0 92 208 133q103 57 361 123h28q89 0 123 -133v-9q0 -103 -265 -152q0 -7 -228 -66l10 -48q0 -66 9 -274q284 132 332 132h29q66 -46 66 -104v-19q0 -145 -218 -180q-201 -104 -218 -104v-180q422 208 445 208h19q76 0 76 -94q0 -194 -180 -228 q-453 -180 -502 -180h-38q-49 0 -57 180z" />
<glyph unicode="f" horiz-adv-x="833" d="M10 73q0 162 9 1164q0 94 128 110h19q12 0 46 -45q270 137 330 137h9q81 0 119 -137v-19q0 -87 -348 -192q0 -16 -92 -37v-211q420 165 504 165q83 -69 83 -119v-37q0 -89 -266 -137q-304 -119 -321 -119v-523q-38 -73 -92 -73h-36q-62 0 -92 73z" />
<glyph unicode="g" horiz-adv-x="1054" d="M12 370v105q0 308 389 797q197 161 342 161h57q203 0 247 -313v-104q0 -129 -162 -152q-104 33 -104 104v124l-10 66h-19q-143 0 -398 -446q-16 -51 -29 -161q0 -276 171 -276q266 50 266 171q-19 31 -19 48h-10q-52 0 -227 -114q-16 -10 -48 -10h-9q-95 55 -95 152 q0 192 342 256h37q223 0 314 -246v-95q0 -282 -380 -418q-37 -19 -104 -19h-76q-303 0 -466 304z" />
<glyph unicode="h" horiz-adv-x="898" d="M27 234v486q0 160 19 448q-9 123 -9 146q42 117 126 117h49q45 -19 88 -88q-30 -309 -30 -623h10q208 39 302 69q10 389 10 535q0 49 77 107h59q88 -13 88 -88q0 -133 -10 -477q68 -101 68 -136v-29q0 -11 -58 -68v-253q68 -58 68 -68v-49q-50 -224 -156 -224h-20 q-136 0 -136 302v117l10 68l-312 -98q10 -131 10 -194v-127q0 -107 -126 -107h-30q-97 0 -97 234z" />
<glyph unicode="i" horiz-adv-x="327" d="M35 68v20q39 865 39 1255q46 88 107 88h19q77 0 108 -107q-20 -292 -39 -1266q-48 -58 -59 -58h-68q-59 0 -107 68z" />
<glyph unicode="j" horiz-adv-x="940" d="M22 203v55q0 84 111 102q40 0 138 -120q16 -9 37 -9h9q157 0 157 341v64q-9 351 -37 351q-96 -74 -157 -74q-93 0 -129 65v64q221 206 563 388h55q66 0 157 -148v-46q0 -100 -231 -120q0 -9 -27 -9q46 -360 46 -535v-55q0 -371 -258 -499q-83 -18 -120 -18h-37 q-127 0 -277 203z" />
<glyph unicode="k" horiz-adv-x="933" d="M25 1345q37 86 124 86q95 0 95 -401q459 401 525 401h38q115 -26 115 -105v-48q-52 -64 -496 -400q439 -620 496 -716v-28q-22 -134 -124 -134h-29q-88 0 -172 153q-314 423 -314 448h-10v-391q0 -115 -134 -115q-68 0 -104 105q9 205 9 306v171q0 198 -19 668z" />
<glyph unicode="l" horiz-adv-x="720" d="M21 399v895q16 137 107 137h29q98 0 98 -292q19 -451 19 -720q10 -87 10 -108q256 98 302 98h38q88 -49 88 -117v-39q0 -81 -243 -136q-229 -117 -341 -117h-29q-78 0 -78 399z" />
<glyph unicode="m" horiz-adv-x="1190" d="M17 76v58q102 838 219 1230q41 38 77 38h19q118 0 172 -372q38 -102 57 -238h9q208 639 306 639h38q99 0 200 -935q67 -223 67 -286v-57q-12 -86 -86 -86h-48q-128 0 -162 324q-46 429 -67 429q-142 -505 -210 -505l-57 -10q-130 0 -181 372q-12 0 -29 124h-9 q-76 -443 -115 -753q-37 -48 -76 -48h-29q-56 0 -95 76z" />
<glyph unicode="n" horiz-adv-x="1005" d="M17 106q163 1287 211 1287l48 38h68q111 -62 211 -442q65 -271 134 -461h10q48 638 48 721q17 9 38 9l-28 39v19q0 78 115 115h19q96 -19 96 -96q-48 -1277 -125 -1277q-57 -39 -105 -39q-162 0 -269 346q-48 128 -144 480h-10q-94 -835 -135 -835l-48 -10h-19 q-115 6 -115 106z" />
<glyph unicode="o" horiz-adv-x="1019" d="M7 382v177q0 333 167 705q133 167 254 167h79q228 0 461 -392q29 -76 29 -137v-30q0 -288 -373 -705q-182 -163 -294 -167h-88q-184 0 -235 382zM262 532q0 -160 68 -196h10q197 0 383 431q19 38 19 108q0 135 -235 264h-39q-161 0 -206 -529v-78z" />
<glyph unicode="p" horiz-adv-x="904" d="M13 85v1054q0 137 104 207h65q196 85 236 85h47q263 0 414 -358q19 -37 19 -103v-94q0 -192 -527 -490h-132v-151q0 -235 -113 -235h-47q-66 30 -66 85zM211 668q25 -75 47 -75h28q367 167 367 405q-34 151 -245 151q-155 -12 -178 -57q-10 -395 -19 -424z" />
<glyph unicode="q" horiz-adv-x="1225" d="M21 373v90q0 456 351 842q150 120 250 120h80q261 0 461 -330q40 -97 40 -191v-70q0 -308 -340 -651q150 -305 150 -361q-50 -100 -150 -100h-30q-85 0 -191 301q-90 -30 -120 -30h-90q-411 65 -411 380zM261 463q27 -200 201 -200h100q-50 177 -50 190v40q50 81 140 81 q43 -36 120 -161q191 233 191 441q0 214 -261 301l-40 10q-258 0 -391 -571q-10 -49 -10 -131z" />
<glyph unicode="r" horiz-adv-x="1046" d="M7 97v96q97 1151 164 1151q89 48 136 48h19q10 0 10 -9q78 48 164 48h39q348 0 348 -406q0 -233 -329 -426q371 -367 455 -367l29 -39v-48q0 -111 -165 -145h-29q-90 0 -561 503h-9v-348q0 -87 -87 -145h-39q-95 0 -145 87zM307 822q17 0 87 -39q232 125 232 271v29 q-13 97 -97 97h-29q-134 0 -155 -174z" />
<glyph unicode="s" horiz-adv-x="904" d="M10 896v77q0 317 399 448q67 10 107 10h107q198 0 244 -165v-30q0 -91 -127 -97q-131 49 -175 49q-312 -46 -312 -205v-29q0 -64 224 -88q419 -198 419 -506v-48q0 -268 -351 -312h-97q-273 0 -389 224q-10 53 -10 88v9q13 137 117 137q112 0 136 -176q52 -39 88 -39h29 q185 0 185 98q0 200 -429 321q-165 97 -165 234z" />
<glyph unicode="t" horiz-adv-x="819" d="M19 857v39q0 118 302 175v195q0 125 78 165h68q85 0 97 -117q0 -39 -10 -175q120 29 166 29q10 0 29 -10q19 10 29 10q39 -43 39 -49v-97q0 -136 -214 -136q-68 -7 -68 -20q-43 -856 -136 -856q0 -10 -10 -10h-58q-108 16 -108 107v10q0 46 88 662h-10q-113 -39 -175 -39 q-107 39 -107 117z" />
<glyph unicode="u" horiz-adv-x="997" d="M19 202v164q0 394 115 1010q38 48 77 48h29q120 -7 145 -135q-61 -79 -97 -606l-28 -375q375 48 375 86q79 992 134 992l49 9h48q58 0 106 -67v-29q-97 -1000 -97 -1107v-19q0 -144 -173 -144q-38 0 -77 58q-295 -87 -423 -87h-58q-125 0 -125 202z" />
<glyph unicode="v" horiz-adv-x="1075" d="M12 1253v60q0 94 128 118q166 0 296 -898q20 0 20 -79h10q341 912 424 967l69 10h30q89 -13 89 -89v-39l-10 -50l-49 10l29 -39q-237 -510 -503 -1185q-53 -39 -89 -39h-39q-140 0 -277 661q-10 20 -128 592z" />
<glyph unicode="w" horiz-adv-x="1403" d="M13 1278v48q19 106 96 106h29q133 0 173 -568q10 0 49 -404h9q116 568 222 568h38q154 0 299 -645h9q184 1020 260 1020q17 10 39 10h58q96 -57 96 -116v-29q-87 -247 -164 -635q-115 -626 -289 -626h-19q-145 0 -260 462q-13 0 -29 77h-9q-91 -520 -193 -520 q0 -19 -67 -19h-29q-203 0 -251 847q0 51 -67 424z" />
<glyph unicode="x" horiz-adv-x="1218" d="M31 1260v67q16 105 105 105h10q138 0 324 -334q131 -201 143 -201q196 535 315 535h19q105 -16 105 -105q0 -86 -305 -601q65 -90 449 -516v-76q0 -86 -144 -115q-91 0 -439 439h-9q-229 -458 -334 -458h-19q-115 27 -115 115v9q0 33 181 296q125 221 125 229 q0 62 -411 611z" />
<glyph unicode="y" horiz-adv-x="983" d="M9 1255v19q19 98 98 98h29q121 0 471 -470q139 529 235 529h39q57 0 89 -69v-39q0 -126 -324 -960q-139 -363 -225 -363h-49q-89 66 -89 127q0 23 177 422v68q-127 225 -422 549q-29 38 -29 89z" />
<glyph unicode="z" horiz-adv-x="1025" d="M10 145v39q0 35 319 493q0 8 300 454v10h-10l-425 -77q-155 22 -155 116v48q0 63 222 126q363 77 532 77h87q87 0 136 -77v-58q0 -48 -474 -706q-128 -200 -184 -319h19q79 0 126 -10q93 10 184 10h29q94 0 116 -145q-12 -126 -97 -126h-338q-377 0 -377 116 q-10 0 -10 29z" />
<glyph unicode="{" d="M240 633v70q183 5 228.5 63.5t45.5 135.5v468q0 64 86 139.5t224 75.5h156v-62h-138q-34 0 -69.5 -25.5t-36.5 -93.5v-500q0 -73 -66.5 -154t-146.5 -81v-2q80 0 147 -80.5t67 -153.5l-1 -500q1 -67 36.5 -93t69.5 -26h138v-62h-156q-138 0 -223.5 76t-86.5 141v466 q0 76 -45.5 134.5t-228.5 63.5z" />
<glyph unicode="|" d="M426 -424v2007h256v-2007h-256z" />
<glyph unicode="}" d="M128 -186h138q34 0 69.5 26t36.5 93l-1 500q0 73 67 153.5t148 80.5v2q-81 0 -147.5 81t-66.5 154v500q-1 68 -36.5 93.5t-69.5 25.5h-138v62h156q138 0 224 -75.5t86 -139.5v-468q0 -77 45.5 -135.5t228.5 -63.5v-70q-183 -5 -228.5 -63.5t-45.5 -134.5v-466 q-1 -65 -86.5 -141t-223.5 -76h-156v62z" />
<glyph unicode="~" d="M35 599v60q0 151 213 222q11 8 60 8h9q146 0 409 -179l17 -8l9 42q0 35 -9 154q33 77 111 77h26q145 -24 145 -145v-77q-31 -333 -222 -333h-43q-92 0 -443 171q-15 8 -34 8v-60q-12 -85 -86 -85h-8q-154 34 -154 145z" />
<glyph unicode="&#xa1;" horiz-adv-x="672" />
<glyph unicode="&#xa2;" horiz-adv-x="1139" />
<glyph unicode="&#xa3;" d="M79 663v80h133q-56 137 -56 243q0 220 132 349q128 129 350 129q98 0 204 -16q132 -17 132 -41v-193h-69q-3 51 -81 103q-78 51 -185 51h-6q-110 0 -173 -93q-57 -83 -57 -228q0 -21 1 -42q0 -138 48 -262h365v-80h-331q50 -92 50 -191q0 -170 -146 -362h393 q94 0 154 133h92l-111 -253h-801l1 54q177 226 177 422q0 103 -48 197h-168z" />
<glyph unicode="&#xa4;" d="M135 413l117 116q-36 52 -52 108q-11 40 -11 80q0 42 12 83q16 54 51 104l-117 117l114 115l125 -125q11 8 74 26q54 17 108 17q50 0 101 -14q65 -20 78 -28l124 124l114 -115l-116 -116q35 -52 52 -107q11 -40 11 -81q0 -40 -11 -81q-17 -55 -52 -107l116 -116 l-114 -115l-124 124q-13 -9 -78 -28q-51 -14 -102 -14t-103 14q-66 19 -79 28l-124 -124zM370 716q0 -25 9 -51q17 -54 56 -88q34 -29 77 -40q22 -5 43 -5t43 5q42 11 76 40q38 34 56 87q9 27 9 53q0 27 -9 53q-18 53 -56 87q-34 29 -77 40q-22 5 -43 5q-22 0 -43 -6 q-43 -11 -76 -39q-37 -33 -55 -86q-10 -27 -10 -55z" />
<glyph unicode="&#xa5;" d="M-41 1365v69h528v-69h-51q-52 0 -52 -36q0 -47 56 -138l176 -379l172 388q46 78 46 122q0 43 -52 43h-48v69h415v-69h-36q-78 0 -164 -152l-194 -403h173v-80h-211l-19 -39v-61h230v-80h-230v-259q0 -222 99 -222h80v-69h-648v69h80q99 0 99 222v259h-228v80h228v63 l-19 37h-209v80h169l-207 411q-85 144 -132 144h-51z" />
<glyph unicode="&#xa6;" d="M426 371h256v-789h-256v789zM426 645v789h256v-789h-256z" />
<glyph unicode="&#xa7;" d="M179 1130q0 141 91.5 235t268.5 95q135 0 218 -19t83 -45v-200h-77q-5 94 -65 137t-178 46q-67 0 -107 -38t-40 -118q0 -137 276 -269q158 -71 214.5 -148.5t56.5 -182.5q0 -164 -101 -275q-52 -44 -109 -71q117 -61 168 -131t51 -174q0 -164 -120 -278.5t-334 -115.5 q-111 0 -193.5 19.5t-82.5 44.5v200h87q5 -93 64 -135.5t163 -45.5q88 4 148 57q71 63 71 170q0 130 -306 276q-132 69 -185 142.5t-53 171.5q0 141 89 230q76 74 177 91q-155 68 -215 150.5t-60 180.5zM382 571q0 -128 217 -239q122 74 122 206v6q-1 91 -67 137t-138 46 q-54 0 -94 -38t-40 -118z" />
<glyph unicode="&#xa8;" horiz-adv-x="1024" d="M228 1261q0 15 16 30l86 81q15 13 30 13q13 0 31 -16l84 -82q12 -15 12 -28q0 -14 -15 -29l-82 -85q-22 -19 -30 -19q-17 0 -30 13l-92 98q-10 12 -10 24zM593 1261q0 14 16 30l86 81q15 13 30 13q13 0 31 -16l84 -82q12 -15 12 -28q0 -14 -15 -29l-82 -85 q-22 -19 -30 -19q-17 0 -30 13l-92 97q-10 13 -10 25z" />
<glyph unicode="&#xa9;" horiz-adv-x="1674" d="M94 718q0 143 52.5 276.5t153.5 237.5q102 109 242.5 169.5t297.5 60.5q152 0 291 -60.5t243 -169.5q99 -102 152.5 -237.5t53.5 -276.5q0 -142 -53.5 -275.5t-156.5 -239.5q-105 -110 -243 -168.5t-294 -58.5q-153 0 -289 59.5t-242 169.5q-103 105 -155.5 237 t-52.5 276zM166 718q0 -142 54.5 -265.5t154.5 -219.5q98 -91 214.5 -138t244.5 -47q130 0 248 46.5t215 136.5q100 97 155.5 222t55.5 265q0 139 -55.5 266t-151.5 220q-96 91 -215.5 138.5t-246.5 47.5q-130 0 -250.5 -47.5t-227.5 -149.5q-86 -84 -140.5 -209t-54.5 -266 zM356 719q0 114 62.5 227t190 182.5t269.5 69.5q66 0 110.5 -13.5t62.5 -13.5q17 0 17 28h63l75 -207h-64q-105 96 -154.5 119t-125.5 23q-75 -5 -178.5 -102.5t-103.5 -298.5q0 -166 92.5 -298.5t218.5 -132.5q118 1 187.5 41.5t71.5 121.5h68v-102q0 -37 -79.5 -79.5 t-247.5 -44.5q-159 0 -285.5 70.5t-188 182.5t-61.5 227z" />
<glyph unicode="&#xaa;" horiz-adv-x="648" d="M22 1023v42q0 62 125 62v6q-104 55 -104 177q0 199 245 272h68q127 0 162 -136l6 -52l-6 -63q30 -21 42 -21q47 16 79 16h10q57 0 57 -99v-16q0 -50 -109 -68q-36 -5 -58 -5q21 -28 21 -58v-20q0 -89 -172 -89q-243 -16 -303 -16q-44 0 -63 68zM205 1310q0 -7 16 -15 q130 58 130 104q-5 10 -5 16h-10q-75 0 -131 -94v-11zM341 1143h5q99 9 99 21q-36 14 -36 26q-60 -42 -68 -42v-5z" />
<glyph unicode="&#xab;" horiz-adv-x="987" d="M174 479l353 313h48v-47l-205 -266l205 -266v-47h-48zM485 479l353 313h48v-47l-205 -266l205 -266v-47h-48z" />
<glyph unicode="&#xac;" d="M86 661v112h916v-503l-1 -1h-174v392h-741z" />
<glyph unicode="&#xad;" horiz-adv-x="774" d="M14 438v81q29 116 117 116h556q117 -29 117 -116v-81q-29 -117 -117 -117h-556q-117 29 -117 117z" />
<glyph unicode="&#xae;" horiz-adv-x="1674" d="M94 718q0 143 52.5 276.5t153.5 237.5q102 109 242.5 169.5t297.5 60.5q152 0 291 -60.5t243 -169.5q99 -102 152.5 -237.5t53.5 -276.5q0 -142 -53.5 -275.5t-156.5 -239.5q-105 -110 -243 -168.5t-294 -58.5q-153 0 -289 59.5t-242 169.5q-103 105 -155.5 237 t-52.5 276zM166 718q0 -142 54.5 -265.5t154.5 -219.5q98 -91 214.5 -138t244.5 -47q130 0 248 46.5t215 136.5q100 97 155.5 222t55.5 265q0 139 -55.5 266t-151.5 220q-96 91 -215.5 138.5t-246.5 47.5q-130 0 -250.5 -47.5t-227.5 -149.5q-86 -84 -140.5 -209t-54.5 -266 zM443 272v61h20q53 0 53 126v520q0 126 1 126h-55v61h369q87 -1 161 -53q65 -43 95.5 -112t30.5 -140q0 -69 -30 -137t-111 -150l63 -100q96 -141 169 -141h22v-61h-367v61h20q14 0 14 13q0 30 -67 125l-35 59q-31 1 -58 17v-88q0 -126 52 -126h21v-61h-368zM738 712 q0 -69 23 -86t49 -17h3q27 1 44 31t35 99q13 54 13 111q0 16 -1 33q-4 74 -29.5 135t-48 74t-43.5 13h-45v-393z" />
<glyph unicode="&#xaf;" horiz-adv-x="670" />
<glyph unicode="&#xb0;" horiz-adv-x="722" d="M60 1138q0 118 84 210.5t218 92.5t218 -93.5t84 -209.5q0 -114 -85 -207.5t-219 -93.5t-217 92t-83 209zM187 1139q0 -80 57 -127.5t119 -47.5t118 47t56 128q0 82 -56 128.5t-118 46.5t-119 -46.5t-57 -128.5z" />
<glyph unicode="&#xb1;" horiz-adv-x="1014" />
<glyph unicode="&#xb2;" horiz-adv-x="1014" />
<glyph unicode="&#xb3;" horiz-adv-x="1014" />
<glyph unicode="&#xb4;" horiz-adv-x="1024" d="M222 1078l260 288q38 37 67 53.5t67 16.5t57.5 -22.5t19.5 -52.5q0 -44 -21 -64t-56 -42l-309 -177h-85z" />
<glyph unicode="&#xb5;" horiz-adv-x="1180" />
<glyph unicode="&#xb6;" d="M98 1066q0 170 114.5 272.5t316.5 102.5h481v-82h-127v-1365h-118v1365h-130v-1365h-160v700q-161 7 -269 117.5t-108 254.5z" />
<glyph unicode="&#xb7;" horiz-adv-x="553" d="M147 717q0 54 38 92t92 38t92 -38t38 -92t-38 -92t-92 -38t-92 38t-38 92z" />
<glyph unicode="&#xb8;" horiz-adv-x="1068" d="M370 -80q21 88 81 88h32q106 -23 106 -181l-6 -57q0 -99 181 -150q12 -20 12 -37v-19q0 -69 -112 -69h-44q-171 0 -244 294q-6 41 -6 81v50z" />
<glyph unicode="&#xb9;" horiz-adv-x="1014" />
<glyph unicode="&#xba;" horiz-adv-x="718" d="M78 935v31q0 78 150 78v5q-150 63 -150 212q0 193 223 265q19 5 47 5h36q152 0 218 -182q5 -45 5 -51q0 -135 -150 -239h5q86 5 129 5q63 -26 63 -78v-46q0 -52 -234 -52l-254 -26h-21q-55 0 -67 73zM254 1267q0 -59 83 -68q94 27 94 88q-9 73 -73 73h-21q-66 0 -83 -93z " />
<glyph unicode="&#xbb;" horiz-adv-x="987" d="M101 166v47l205 266l-205 266v47h48l353 -313l-353 -313h-48zM412 166v47l205 266l-205 266v47h48l353 -313l-353 -313h-48z" />
<glyph unicode="&#xbc;" horiz-adv-x="1708" />
<glyph unicode="&#xbd;" horiz-adv-x="1964" />
<glyph unicode="&#xbe;" horiz-adv-x="1708" />
<glyph unicode="&#xbf;" horiz-adv-x="748" />
<glyph unicode="&#xc0;" horiz-adv-x="756" d="M28 93v19q0 128 352 1116q56 196 167 196h39q105 0 147 -392q10 0 59 -283h29q91 0 108 -147v-49q0 -67 -108 -108l68 -352q-19 -108 -97 -108h-40q-146 0 -146 313q-10 118 -30 118q-284 -84 -284 -147q0 -274 -117 -274h-49q-98 19 -98 98zM167 1782v61q25 99 99 99h23 q67 0 190 -160q114 -108 114 -152v-38q-25 -99 -99 -99h-30q-60 0 -297 289zM410 631h10q130 49 146 49q-49 210 -49 245h-9q0 -20 -98 -294z" />
<glyph unicode="&#xc1;" horiz-adv-x="760" d="M28 93v19q0 128 352 1116q56 196 167 196h39q105 0 147 -392q10 0 59 -283h29q91 0 108 -147v-49q0 -67 -108 -108l68 -352q-19 -108 -97 -108h-40q-146 0 -146 313q-10 118 -30 118q-284 -84 -284 -147q0 -274 -117 -274h-49q-98 19 -98 98zM410 631h10q130 49 146 49 q-49 210 -49 245h-9q0 -20 -98 -294zM454 1636q0 62 250 303q5 23 60 23h23q99 -25 99 -98v-38q0 -48 -250 -296q-25 -15 -46 -15h-22q-97 0 -114 121z" />
<glyph unicode="&#xc2;" horiz-adv-x="781" d="M28 93v19q0 128 352 1116q56 196 167 196h39q105 0 147 -392q10 0 59 -283h29q91 0 108 -147v-49q0 -67 -108 -108l68 -352q-19 -108 -97 -108h-40q-146 0 -146 313q-10 118 -30 118q-284 -84 -284 -147q0 -274 -117 -274h-49q-98 19 -98 98zM178 1563q0 47 251 312 q0 23 68 38h61q80 0 205 -175q107 -93 107 -144v-23q0 -92 -114 -114q-71 0 -213 182h-16q-157 -205 -220 -205h-23q-89 0 -106 129zM410 631h10q130 49 146 49q-49 210 -49 245h-9q0 -20 -98 -294z" />
<glyph unicode="&#xc3;" horiz-adv-x="748" d="M28 93v19q0 128 352 1116q56 196 167 196h39q105 0 147 -392q10 0 59 -283h29q91 0 108 -147v-49q0 -67 -108 -108l68 -352q-19 -108 -97 -108h-40q-146 0 -146 313q-10 118 -30 118q-284 -84 -284 -147q0 -274 -117 -274h-49q-98 19 -98 98zM235 1601v22q0 102 138 150 q7 5 39 5h16q75 0 260 -116h12v28q0 31 -6 88q0 44 72 55h27q64 0 83 -93v-34q0 -196 -133 -232h-32q-65 0 -299 117h-17v-56q-20 -39 -55 -39h-11q-72 0 -94 105zM410 631h10q130 49 146 49q-49 210 -49 245h-9q0 -20 -98 -294z" />
<glyph unicode="&#xc4;" horiz-adv-x="833" d="M28 93v19q0 128 352 1116q56 196 167 196h39q105 0 147 -392q10 0 59 -283h29q91 0 108 -147v-49q0 -67 -108 -108l68 -352q-19 -108 -97 -108h-40q-146 0 -146 313q-10 118 -30 118q-284 -84 -284 -147q0 -274 -117 -274h-49q-98 19 -98 98zM265 1626v12q0 87 95 112h29 q94 -25 94 -112v-12q0 -97 -118 -112q-76 0 -100 112zM410 631h10q130 49 146 49q-49 210 -49 245h-9q0 -20 -98 -294zM649 1645q0 87 118 112q100 -20 100 -101v-35q-31 -100 -100 -100h-24q-94 17 -94 124z" />
<glyph unicode="&#xc5;" horiz-adv-x="1540" />
<glyph unicode="&#xc6;" horiz-adv-x="2118" />
<glyph unicode="&#xc7;" horiz-adv-x="975" d="M-7 474v141q0 261 312 675q149 141 222 141h61q144 0 231 -242v-20q-13 -91 -90 -91h-20q-59 0 -132 111q-322 -314 -322 -554v-10q36 -333 191 -333q168 0 273 172q0 56 121 70h20q100 -20 100 -101v-10q0 -136 -262 -342q-148 -81 -252 -81h-40q-310 0 -413 474z M363 -44q14 58 54 58h21q71 -15 71 -121l-4 -37q0 -67 121 -101q8 -13 8 -25v-12q0 -46 -75 -46h-29q-114 0 -163 196q-4 27 -4 54v34z" />
<glyph unicode="&#xc8;" horiz-adv-x="645" d="M-29 1836q34 107 99 107h38q65 0 283 -282q15 0 15 -54q-18 -114 -99 -114h-23q-74 0 -191 160q-122 109 -122 183zM12 180v995q0 92 208 133q103 57 361 123h28q89 0 123 -133v-9q0 -103 -265 -152q0 -7 -228 -66l10 -48q0 -66 9 -274q284 132 332 132h29 q66 -46 66 -104v-19q0 -145 -218 -180q-201 -104 -218 -104v-180q422 208 445 208h19q76 0 76 -94q0 -194 -180 -228q-453 -180 -502 -180h-38q-49 0 -57 180z" />
<glyph unicode="&#xc9;" horiz-adv-x="652" d="M12 180v995q0 92 208 133q103 57 361 123h28q89 0 123 -133v-9q0 -103 -265 -152q0 -7 -228 -66l10 -48q0 -66 9 -274q284 132 332 132h29q66 -46 66 -104v-19q0 -145 -218 -180q-201 -104 -218 -104v-180q422 208 445 208h19q76 0 76 -94q0 -194 -180 -228 q-453 -180 -502 -180h-38q-49 0 -57 180zM128 1555v39q0 51 256 302q25 16 47 16h31q100 -25 100 -101v-39q0 -50 -255 -302q-26 -15 -47 -15h-31q-101 25 -101 100z" />
<glyph unicode="&#xca;" horiz-adv-x="737" d="M12 180v995q0 92 208 133q103 57 361 123h28q89 0 123 -133v-9q0 -103 -265 -152q0 -7 -228 -66l10 -48q0 -66 9 -274q284 132 332 132h29q66 -46 66 -104v-19q0 -145 -218 -180q-201 -104 -218 -104v-180q422 208 445 208h19q76 0 76 -94q0 -194 -180 -228 q-453 -180 -502 -180h-38q-49 0 -57 180zM34 1551v33q0 46 202 243q29 61 74 61h61q66 0 209 -183q67 -61 67 -100v-21q0 -86 -107 -100q-50 0 -190 161q-156 -182 -202 -182h-13q-101 15 -101 88z" />
<glyph unicode="&#xcb;" horiz-adv-x="788" d="M12 180v995q0 92 208 133q103 57 361 123h28q89 0 123 -133v-9q0 -103 -265 -152q0 -7 -228 -66l10 -48q0 -66 9 -274q284 132 332 132h29q66 -46 66 -104v-19q0 -145 -218 -180q-201 -104 -218 -104v-180q422 208 445 208h19q76 0 76 -94q0 -194 -180 -228 q-453 -180 -502 -180h-38q-49 0 -57 180zM57 1628v12q0 87 95 112h29q94 -25 94 -112v-12q0 -97 -118 -112q-76 0 -100 112zM441 1647q0 87 118 112q100 -20 100 -101v-35q-31 -100 -100 -100h-24q-94 17 -94 124z" />
<glyph unicode="&#xcc;" horiz-adv-x="434" d="M-187 1838v63q25 101 101 101h24q75 0 218 -195q93 -74 93 -124v-39q-25 -101 -101 -101h-31q-62 0 -304 295zM35 68v20q39 865 39 1255q46 88 107 88h19q77 0 108 -107q-20 -292 -39 -1266q-48 -58 -59 -58h-68q-59 0 -107 68z" />
<glyph unicode="&#xcd;" horiz-adv-x="461" d="M35 68v20q39 865 39 1255q46 88 107 88h19q77 0 108 -107q-20 -292 -39 -1266q-48 -58 -59 -58h-68q-59 0 -107 68zM52 1639v32q0 72 290 339h57q104 -26 104 -105v-40q0 -53 -266 -314q-26 -17 -48 -17h-32q-105 27 -105 105z" />
<glyph unicode="&#xce;" horiz-adv-x="585" d="M-102 1600v30q0 41 185 223q27 55 68 55h56q60 0 191 -167q62 -57 62 -92v-19q0 -79 -98 -92q-46 0 -174 147q-145 -166 -185 -166h-12q-93 14 -93 81zM35 68v20q39 865 39 1255q46 88 107 88h19q77 0 108 -107q-20 -292 -39 -1266q-48 -58 -59 -58h-68q-59 0 -107 68z " />
<glyph unicode="&#xcf;" horiz-adv-x="657" d="M40 1642v12q0 87 95 112h29q94 -25 94 -112v-12q0 -97 -118 -112q-76 0 -100 112zM177 75v20q39 865 39 1255q46 88 107 88h19q77 0 108 -107q-20 -292 -39 -1266q-48 -58 -59 -58h-68q-59 0 -107 68zM424 1661q0 87 118 112q100 -20 100 -101v-35q-31 -100 -100 -100 h-24q-94 17 -94 124z" />
<glyph unicode="&#xd0;" horiz-adv-x="1518" />
<glyph unicode="&#xd1;" horiz-adv-x="969" d="M17 106q163 1287 211 1287l48 38h68q111 -62 211 -442q65 -271 134 -461h10q48 638 48 721q17 9 38 9l-28 39v19q0 78 115 115h19q96 -19 96 -96q-48 -1277 -125 -1277q-57 -39 -105 -39q-162 0 -269 346q-48 128 -144 480h-10q-94 -835 -135 -835l-48 -10h-19 q-115 6 -115 106zM206 1654v22q0 102 138 150q7 5 39 5h16q75 0 260 -116h12v28q0 31 -6 88q0 44 72 55h27q64 0 83 -93v-34q0 -196 -133 -232h-32q-65 0 -299 117h-17v-56q-20 -39 -55 -39h-11q-72 0 -94 105z" />
<glyph unicode="&#xd2;" horiz-adv-x="856" d="M7 382v177q0 333 167 705q133 167 254 167h79q228 0 461 -392q29 -76 29 -137v-30q0 -288 -373 -705q-182 -163 -294 -167h-88q-184 0 -235 382zM184 1846v16q16 120 104 120h40q64 0 296 -296q16 0 16 -56q-19 -120 -104 -120h-40q-56 0 -240 224q-72 65 -72 112z M262 532q0 -160 68 -196h10q197 0 383 431q19 38 19 108q0 135 -235 264h-39q-161 0 -206 -529v-78z" />
<glyph unicode="&#xd3;" horiz-adv-x="820" d="M7 382v177q0 333 167 705q133 167 254 167h79q228 0 461 -392q29 -76 29 -137v-30q0 -288 -373 -705q-182 -163 -294 -167h-88q-184 0 -235 382zM262 532q0 -160 68 -196h10q197 0 383 431q19 38 19 108q0 135 -235 264h-39q-161 0 -206 -529v-78zM361 1689q0 61 251 306 q10 31 70 31h24q86 0 110 -126q0 -71 -291 -337h-62q-79 0 -102 126z" />
<glyph unicode="&#xd4;" horiz-adv-x="800" d="M7 382v177q0 333 167 705q133 167 254 167h79q228 0 461 -392q29 -76 29 -137v-30q0 -288 -373 -705q-182 -163 -294 -167h-88q-184 0 -235 382zM190 1599v33q0 46 202 243q29 61 74 61h61q66 0 209 -183q67 -61 67 -100v-21q0 -86 -107 -100q-50 0 -190 161 q-156 -182 -202 -182h-13q-101 15 -101 88zM262 532q0 -160 68 -196h10q197 0 383 431q19 38 19 108q0 135 -235 264h-39q-161 0 -206 -529v-78z" />
<glyph unicode="&#xd5;" horiz-adv-x="846" d="M7 382v177q0 333 167 705q133 167 254 167h79q228 0 461 -392q29 -76 29 -137v-30q0 -288 -373 -705q-182 -163 -294 -167h-88q-184 0 -235 382zM168 1621v40q0 95 136 148q22 5 46 5h6q95 0 283 -125l6 29q0 23 -6 102q22 51 75 51h17q96 -16 96 -96v-34 q0 -202 -136 -239h-40q-62 0 -307 119h-11v-40q-11 -56 -57 -56h-6q-102 24 -102 96zM262 532q0 -160 68 -196h10q197 0 383 431q19 38 19 108q0 135 -235 264h-39q-161 0 -206 -529v-78z" />
<glyph unicode="&#xd6;" horiz-adv-x="912" d="M7 382v177q0 333 167 705q133 167 254 167h79q228 0 461 -392q29 -76 29 -137v-30q0 -288 -373 -705q-182 -163 -294 -167h-88q-184 0 -235 382zM163 1676v12q0 87 95 112h29q94 -25 94 -112v-12q0 -97 -118 -112q-76 0 -100 112zM262 532q0 -160 68 -196h10 q197 0 383 431q19 38 19 108q0 135 -235 264h-39q-161 0 -206 -529v-78zM547 1695q0 87 118 112q100 -20 100 -101v-35q-31 -100 -100 -100h-24q-94 17 -94 124z" />
<glyph unicode="&#xd7;" d="M171 447l270 270l-270 270l113 113l270 -270l270 270l113 -113l-270 -270l270 -270l-113 -113l-270 270l-270 -270z" />
<glyph unicode="&#xd8;" horiz-adv-x="1614" />
<glyph unicode="&#xd9;" horiz-adv-x="823" d="M19 202v164q0 394 115 1010q38 48 77 48h29q120 -7 145 -135q-61 -79 -97 -606l-28 -375q375 48 375 86q79 992 134 992l49 9h48q58 0 106 -67v-29q-97 -1000 -97 -1107v-19q0 -144 -173 -144q-38 0 -77 58q-295 -87 -423 -87h-58q-125 0 -125 202zM196 1811v38 q25 100 100 100h23q74 0 214 -192q92 -73 92 -122v-31q-13 -107 -107 -107h-15q-75 0 -215 191q-92 74 -92 123z" />
<glyph unicode="&#xda;" horiz-adv-x="823" d="M19 202v164q0 394 115 1010q38 48 77 48h29q120 -7 145 -135q-61 -79 -97 -606l-28 -375q375 48 375 86q79 992 134 992l49 9h48q58 0 106 -67v-29q-97 -1000 -97 -1107v-19q0 -144 -173 -144q-38 0 -77 58q-295 -87 -423 -87h-58q-125 0 -125 202zM418 1609 q0 62 254 309q10 32 71 32h24q103 -26 103 -103v-40q0 -52 -270 -317q-15 0 -55 -16q-101 0 -127 135z" />
<glyph unicode="&#xdb;" horiz-adv-x="850" d="M19 202v164q0 394 115 1010q38 48 77 48h29q120 -7 145 -135q-61 -79 -97 -606l-28 -375q375 48 375 86q79 992 134 992l49 9h48q58 0 106 -67v-29q-97 -1000 -97 -1107v-19q0 -144 -173 -144q-38 0 -77 58q-295 -87 -423 -87h-58q-125 0 -125 202zM278 1585 q0 53 189 243q26 41 59 41h53q58 0 172 -148q71 -58 71 -106v-12q0 -72 -89 -89q-57 0 -165 142h-7q-137 -160 -183 -160h-6q-94 18 -94 89z" />
<glyph unicode="&#xdc;" horiz-adv-x="898" d="M19 202v164q0 394 115 1010q38 48 77 48h29q120 -7 145 -135q-61 -79 -97 -606l-28 -375q375 48 375 86q79 992 134 992l49 9h48q58 0 106 -67v-29q-97 -1000 -97 -1107v-19q0 -144 -173 -144q-38 0 -77 58q-295 -87 -423 -87h-58q-125 0 -125 202zM195 1639 q27 124 104 124h27q93 0 111 -118v-33q-33 -111 -111 -111h-7q-106 0 -124 138zM622 1618q22 138 131 138q112 -21 112 -112v-39q-34 -111 -112 -111h-26q-84 0 -105 124z" />
<glyph unicode="&#xdd;" horiz-adv-x="945" d="M-15 1255v19q19 98 98 98h29q121 0 471 -470q139 529 235 529h39q57 0 89 -69v-39q0 -126 -324 -960q-139 -363 -225 -363h-49q-89 66 -89 127q0 23 177 422v68q-127 225 -422 549q-29 38 -29 89zM357 1532q0 62 254 309q10 32 71 32h24q103 -26 103 -103v-40 q0 -52 -270 -317q-15 0 -55 -16q-101 0 -127 135z" />
<glyph unicode="&#xde;" horiz-adv-x="1120" />
<glyph unicode="&#xdf;" horiz-adv-x="1251" />
<glyph unicode="&#xe0;" horiz-adv-x="756" d="M28 93v19q0 128 352 1116q56 196 167 196h39q105 0 147 -392q10 0 59 -283h29q91 0 108 -147v-49q0 -67 -108 -108l68 -352q-19 -108 -97 -108h-40q-146 0 -146 313q-10 118 -30 118q-284 -84 -284 -147q0 -274 -117 -274h-49q-98 19 -98 98zM167 1782v61q25 99 99 99h23 q67 0 190 -160q114 -108 114 -152v-38q-25 -99 -99 -99h-30q-60 0 -297 289zM410 631h10q130 49 146 49q-49 210 -49 245h-9q0 -20 -98 -294z" />
<glyph unicode="&#xe1;" horiz-adv-x="760" d="M28 93v19q0 128 352 1116q56 196 167 196h39q105 0 147 -392q10 0 59 -283h29q91 0 108 -147v-49q0 -67 -108 -108l68 -352q-19 -108 -97 -108h-40q-146 0 -146 313q-10 118 -30 118q-284 -84 -284 -147q0 -274 -117 -274h-49q-98 19 -98 98zM410 631h10q130 49 146 49 q-49 210 -49 245h-9q0 -20 -98 -294zM454 1636q0 62 250 303q5 23 60 23h23q99 -25 99 -98v-38q0 -48 -250 -296q-25 -15 -46 -15h-22q-97 0 -114 121z" />
<glyph unicode="&#xe2;" horiz-adv-x="781" d="M28 93v19q0 128 352 1116q56 196 167 196h39q105 0 147 -392q10 0 59 -283h29q91 0 108 -147v-49q0 -67 -108 -108l68 -352q-19 -108 -97 -108h-40q-146 0 -146 313q-10 118 -30 118q-284 -84 -284 -147q0 -274 -117 -274h-49q-98 19 -98 98zM178 1563q0 47 251 312 q0 23 68 38h61q80 0 205 -175q107 -93 107 -144v-23q0 -92 -114 -114q-71 0 -213 182h-16q-157 -205 -220 -205h-23q-89 0 -106 129zM410 631h10q130 49 146 49q-49 210 -49 245h-9q0 -20 -98 -294z" />
<glyph unicode="&#xe3;" horiz-adv-x="748" d="M28 93v19q0 128 352 1116q56 196 167 196h39q105 0 147 -392q10 0 59 -283h29q91 0 108 -147v-49q0 -67 -108 -108l68 -352q-19 -108 -97 -108h-40q-146 0 -146 313q-10 118 -30 118q-284 -84 -284 -147q0 -274 -117 -274h-49q-98 19 -98 98zM235 1601v22q0 102 138 150 q7 5 39 5h16q75 0 260 -116h12v28q0 31 -6 88q0 44 72 55h27q64 0 83 -93v-34q0 -196 -133 -232h-32q-65 0 -299 117h-17v-56q-20 -39 -55 -39h-11q-72 0 -94 105zM410 631h10q130 49 146 49q-49 210 -49 245h-9q0 -20 -98 -294z" />
<glyph unicode="&#xe4;" horiz-adv-x="833" d="M28 93v19q0 128 352 1116q56 196 167 196h39q105 0 147 -392q10 0 59 -283h29q91 0 108 -147v-49q0 -67 -108 -108l68 -352q-19 -108 -97 -108h-40q-146 0 -146 313q-10 118 -30 118q-284 -84 -284 -147q0 -274 -117 -274h-49q-98 19 -98 98zM265 1626v12q0 87 95 112h29 q94 -25 94 -112v-12q0 -97 -118 -112q-76 0 -100 112zM410 631h10q130 49 146 49q-49 210 -49 245h-9q0 -20 -98 -294zM649 1645q0 87 118 112q100 -20 100 -101v-35q-31 -100 -100 -100h-24q-94 17 -94 124z" />
<glyph unicode="&#xe5;" horiz-adv-x="922" />
<glyph unicode="&#xe6;" horiz-adv-x="1454" />
<glyph unicode="&#xe7;" horiz-adv-x="1399" d="M150 474v141q0 261 312 675q149 141 222 141h61q144 0 231 -242v-20q-13 -91 -90 -91h-20q-59 0 -132 111q-322 -314 -322 -554v-10q36 -333 191 -333q168 0 273 172q0 56 121 70h20q100 -20 100 -101v-10q0 -136 -262 -342q-148 -81 -252 -81h-40q-310 0 -413 474z M520 -44q14 58 54 58h21q71 -15 71 -121l-4 -37q0 -67 121 -101q8 -13 8 -25v-12q0 -46 -75 -46h-29q-114 0 -163 196q-4 27 -4 54v34z" />
<glyph unicode="&#xe8;" horiz-adv-x="645" d="M-29 1836q34 107 99 107h38q65 0 283 -282q15 0 15 -54q-18 -114 -99 -114h-23q-74 0 -191 160q-122 109 -122 183zM12 180v995q0 92 208 133q103 57 361 123h28q89 0 123 -133v-9q0 -103 -265 -152q0 -7 -228 -66l10 -48q0 -66 9 -274q284 132 332 132h29 q66 -46 66 -104v-19q0 -145 -218 -180q-201 -104 -218 -104v-180q422 208 445 208h19q76 0 76 -94q0 -194 -180 -228q-453 -180 -502 -180h-38q-49 0 -57 180z" />
<glyph unicode="&#xe9;" horiz-adv-x="652" d="M12 180v995q0 92 208 133q103 57 361 123h28q89 0 123 -133v-9q0 -103 -265 -152q0 -7 -228 -66l10 -48q0 -66 9 -274q284 132 332 132h29q66 -46 66 -104v-19q0 -145 -218 -180q-201 -104 -218 -104v-180q422 208 445 208h19q76 0 76 -94q0 -194 -180 -228 q-453 -180 -502 -180h-38q-49 0 -57 180zM128 1555v39q0 51 256 302q25 16 47 16h31q100 -25 100 -101v-39q0 -50 -255 -302q-26 -15 -47 -15h-31q-101 25 -101 100z" />
<glyph unicode="&#xea;" horiz-adv-x="737" d="M12 180v995q0 92 208 133q103 57 361 123h28q89 0 123 -133v-9q0 -103 -265 -152q0 -7 -228 -66l10 -48q0 -66 9 -274q284 132 332 132h29q66 -46 66 -104v-19q0 -145 -218 -180q-201 -104 -218 -104v-180q422 208 445 208h19q76 0 76 -94q0 -194 -180 -228 q-453 -180 -502 -180h-38q-49 0 -57 180zM34 1551v33q0 46 202 243q29 61 74 61h61q66 0 209 -183q67 -61 67 -100v-21q0 -86 -107 -100q-50 0 -190 161q-156 -182 -202 -182h-13q-101 15 -101 88z" />
<glyph unicode="&#xeb;" horiz-adv-x="788" d="M12 180v995q0 92 208 133q103 57 361 123h28q89 0 123 -133v-9q0 -103 -265 -152q0 -7 -228 -66l10 -48q0 -66 9 -274q284 132 332 132h29q66 -46 66 -104v-19q0 -145 -218 -180q-201 -104 -218 -104v-180q422 208 445 208h19q76 0 76 -94q0 -194 -180 -228 q-453 -180 -502 -180h-38q-49 0 -57 180zM57 1628v12q0 87 95 112h29q94 -25 94 -112v-12q0 -97 -118 -112q-76 0 -100 112zM441 1647q0 87 118 112q100 -20 100 -101v-35q-31 -100 -100 -100h-24q-94 17 -94 124z" />
<glyph unicode="&#xec;" horiz-adv-x="434" d="M-187 1838v63q25 101 101 101h24q75 0 218 -195q93 -74 93 -124v-39q-25 -101 -101 -101h-31q-62 0 -304 295zM35 68v20q39 865 39 1255q46 88 107 88h19q77 0 108 -107q-20 -292 -39 -1266q-48 -58 -59 -58h-68q-59 0 -107 68z" />
<glyph unicode="&#xed;" horiz-adv-x="461" d="M35 68v20q39 865 39 1255q46 88 107 88h19q77 0 108 -107q-20 -292 -39 -1266q-48 -58 -59 -58h-68q-59 0 -107 68zM52 1639v32q0 72 290 339h57q104 -26 104 -105v-40q0 -53 -266 -314q-26 -17 -48 -17h-32q-105 27 -105 105z" />
<glyph unicode="&#xee;" horiz-adv-x="585" d="M-102 1600v30q0 41 185 223q27 55 68 55h56q60 0 191 -167q62 -57 62 -92v-19q0 -79 -98 -92q-46 0 -174 147q-145 -166 -185 -166h-12q-93 14 -93 81zM35 68v20q39 865 39 1255q46 88 107 88h19q77 0 108 -107q-20 -292 -39 -1266q-48 -58 -59 -58h-68q-59 0 -107 68z " />
<glyph unicode="&#xef;" horiz-adv-x="657" d="M40 1642v12q0 87 95 112h29q94 -25 94 -112v-12q0 -97 -118 -112q-76 0 -100 112zM177 75v20q39 865 39 1255q46 88 107 88h19q77 0 108 -107q-20 -292 -39 -1266q-48 -58 -59 -58h-68q-59 0 -107 68zM424 1661q0 87 118 112q100 -20 100 -101v-35q-31 -100 -100 -100 h-24q-94 17 -94 124z" />
<glyph unicode="&#xf0;" horiz-adv-x="1139" />
<glyph unicode="&#xf1;" horiz-adv-x="969" d="M17 106q163 1287 211 1287l48 38h68q111 -62 211 -442q65 -271 134 -461h10q48 638 48 721q17 9 38 9l-28 39v19q0 78 115 115h19q96 -19 96 -96q-48 -1277 -125 -1277q-57 -39 -105 -39q-162 0 -269 346q-48 128 -144 480h-10q-94 -835 -135 -835l-48 -10h-19 q-115 6 -115 106zM206 1654v22q0 102 138 150q7 5 39 5h16q75 0 260 -116h12v28q0 31 -6 88q0 44 72 55h27q64 0 83 -93v-34q0 -196 -133 -232h-32q-65 0 -299 117h-17v-56q-20 -39 -55 -39h-11q-72 0 -94 105z" />
<glyph unicode="&#xf2;" horiz-adv-x="856" d="M7 382v177q0 333 167 705q133 167 254 167h79q228 0 461 -392q29 -76 29 -137v-30q0 -288 -373 -705q-182 -163 -294 -167h-88q-184 0 -235 382zM184 1846v16q16 120 104 120h40q64 0 296 -296q16 0 16 -56q-19 -120 -104 -120h-40q-56 0 -240 224q-72 65 -72 112z M262 532q0 -160 68 -196h10q197 0 383 431q19 38 19 108q0 135 -235 264h-39q-161 0 -206 -529v-78z" />
<glyph unicode="&#xf3;" horiz-adv-x="820" d="M7 382v177q0 333 167 705q133 167 254 167h79q228 0 461 -392q29 -76 29 -137v-30q0 -288 -373 -705q-182 -163 -294 -167h-88q-184 0 -235 382zM262 532q0 -160 68 -196h10q197 0 383 431q19 38 19 108q0 135 -235 264h-39q-161 0 -206 -529v-78zM361 1689q0 61 251 306 q10 31 70 31h24q86 0 110 -126q0 -71 -291 -337h-62q-79 0 -102 126z" />
<glyph unicode="&#xf4;" horiz-adv-x="800" d="M7 382v177q0 333 167 705q133 167 254 167h79q228 0 461 -392q29 -76 29 -137v-30q0 -288 -373 -705q-182 -163 -294 -167h-88q-184 0 -235 382zM190 1599v33q0 46 202 243q29 61 74 61h61q66 0 209 -183q67 -61 67 -100v-21q0 -86 -107 -100q-50 0 -190 161 q-156 -182 -202 -182h-13q-101 15 -101 88zM262 532q0 -160 68 -196h10q197 0 383 431q19 38 19 108q0 135 -235 264h-39q-161 0 -206 -529v-78z" />
<glyph unicode="&#xf5;" horiz-adv-x="846" d="M7 382v177q0 333 167 705q133 167 254 167h79q228 0 461 -392q29 -76 29 -137v-30q0 -288 -373 -705q-182 -163 -294 -167h-88q-184 0 -235 382zM168 1621v40q0 95 136 148q22 5 46 5h6q95 0 283 -125l6 29q0 23 -6 102q22 51 75 51h17q96 -16 96 -96v-34 q0 -202 -136 -239h-40q-62 0 -307 119h-11v-40q-11 -56 -57 -56h-6q-102 24 -102 96zM262 532q0 -160 68 -196h10q197 0 383 431q19 38 19 108q0 135 -235 264h-39q-161 0 -206 -529v-78z" />
<glyph unicode="&#xf6;" horiz-adv-x="912" d="M7 382v177q0 333 167 705q133 167 254 167h79q228 0 461 -392q29 -76 29 -137v-30q0 -288 -373 -705q-182 -163 -294 -167h-88q-184 0 -235 382zM163 1676v12q0 87 95 112h29q94 -25 94 -112v-12q0 -97 -118 -112q-76 0 -100 112zM262 532q0 -160 68 -196h10 q197 0 383 431q19 38 19 108q0 135 -235 264h-39q-161 0 -206 -529v-78zM547 1695q0 87 118 112q100 -20 100 -101v-35q-31 -100 -100 -100h-24q-94 17 -94 124z" />
<glyph unicode="&#xf7;" d="M80 637v160h948v-160h-948zM411 371q0 16 17 33l95 89q18 15 34 15q14 0 34 -17l93 -91q13 -17 13 -31q0 -15 -16 -32l-91 -94q-24 -21 -33 -21q-19 0 -34 15l-101 107q-11 14 -11 27zM411 1057q0 16 17 33l95 89q18 15 34 15q14 0 34 -17l93 -91q13 -17 13 -31 q0 -15 -16 -32l-91 -94q-24 -21 -33 -21q-19 0 -34 15l-101 107q-11 14 -11 27z" />
<glyph unicode="&#xf8;" horiz-adv-x="1010" />
<glyph unicode="&#xf9;" horiz-adv-x="823" d="M19 202v164q0 394 115 1010q38 48 77 48h29q120 -7 145 -135q-61 -79 -97 -606l-28 -375q375 48 375 86q79 992 134 992l49 9h48q58 0 106 -67v-29q-97 -1000 -97 -1107v-19q0 -144 -173 -144q-38 0 -77 58q-295 -87 -423 -87h-58q-125 0 -125 202zM196 1811v38 q25 100 100 100h23q74 0 214 -192q92 -73 92 -122v-31q-13 -107 -107 -107h-15q-75 0 -215 191q-92 74 -92 123z" />
<glyph unicode="&#xfa;" horiz-adv-x="823" d="M19 202v164q0 394 115 1010q38 48 77 48h29q120 -7 145 -135q-61 -79 -97 -606l-28 -375q375 48 375 86q79 992 134 992l49 9h48q58 0 106 -67v-29q-97 -1000 -97 -1107v-19q0 -144 -173 -144q-38 0 -77 58q-295 -87 -423 -87h-58q-125 0 -125 202zM418 1609 q0 62 254 309q10 32 71 32h24q103 -26 103 -103v-40q0 -52 -270 -317q-15 0 -55 -16q-101 0 -127 135z" />
<glyph unicode="&#xfb;" horiz-adv-x="850" d="M19 202v164q0 394 115 1010q38 48 77 48h29q120 -7 145 -135q-61 -79 -97 -606l-28 -375q375 48 375 86q79 992 134 992l49 9h48q58 0 106 -67v-29q-97 -1000 -97 -1107v-19q0 -144 -173 -144q-38 0 -77 58q-295 -87 -423 -87h-58q-125 0 -125 202zM278 1585 q0 53 189 243q26 41 59 41h53q58 0 172 -148q71 -58 71 -106v-12q0 -72 -89 -89q-57 0 -165 142h-7q-137 -160 -183 -160h-6q-94 18 -94 89z" />
<glyph unicode="&#xfc;" horiz-adv-x="898" d="M19 202v164q0 394 115 1010q38 48 77 48h29q120 -7 145 -135q-61 -79 -97 -606l-28 -375q375 48 375 86q79 992 134 992l49 9h48q58 0 106 -67v-29q-97 -1000 -97 -1107v-19q0 -144 -173 -144q-38 0 -77 58q-295 -87 -423 -87h-58q-125 0 -125 202zM195 1639 q27 124 104 124h27q93 0 111 -118v-33q-33 -111 -111 -111h-7q-106 0 -124 138zM622 1618q22 138 131 138q112 -21 112 -112v-39q-34 -111 -112 -111h-26q-84 0 -105 124z" />
<glyph unicode="&#xfd;" horiz-adv-x="945" d="M-15 1255v19q19 98 98 98h29q121 0 471 -470q139 529 235 529h39q57 0 89 -69v-39q0 -126 -324 -960q-139 -363 -225 -363h-49q-89 66 -89 127q0 23 177 422v68q-127 225 -422 549q-29 38 -29 89zM357 1532q0 62 254 309q10 32 71 32h24q103 -26 103 -103v-40 q0 -52 -270 -317q-15 0 -55 -16q-101 0 -127 135z" />
<glyph unicode="&#xfe;" horiz-adv-x="1010" />
<glyph unicode="&#xff;" horiz-adv-x="868" />
<glyph unicode="&#x2c6;" horiz-adv-x="902" d="M115 1210q0 47 251 312q0 23 68 38h61q81 0 206 -175q106 -93 106 -144v-23q0 -92 -114 -114q-71 0 -213 182h-15q-157 -205 -221 -205h-23q-89 0 -106 129z" />
<glyph unicode="&#x2dc;" horiz-adv-x="1072" d="M234 1122q21 117 74.5 174t146.5 57q62 -1 132 -24t122 -23q29 0 46 16t34 70h67q-22 -113 -75 -169t-144 -56q-70 0 -139.5 23.5t-121.5 23.5q-27 0 -44 -16t-31 -76h-67z" />
<glyph unicode="&#x2000;" horiz-adv-x="1058" />
<glyph unicode="&#x2001;" horiz-adv-x="2116" />
<glyph unicode="&#x2002;" horiz-adv-x="1058" />
<glyph unicode="&#x2003;" horiz-adv-x="2116" />
<glyph unicode="&#x2004;" horiz-adv-x="705" />
<glyph unicode="&#x2005;" horiz-adv-x="529" />
<glyph unicode="&#x2006;" horiz-adv-x="352" />
<glyph unicode="&#x2007;" horiz-adv-x="352" />
<glyph unicode="&#x2008;" horiz-adv-x="264" />
<glyph unicode="&#x2009;" horiz-adv-x="423" />
<glyph unicode="&#x200a;" horiz-adv-x="117" />
<glyph unicode="&#x2010;" horiz-adv-x="774" d="M14 438v81q29 116 117 116h556q117 -29 117 -116v-81q-29 -117 -117 -117h-556q-117 29 -117 117z" />
<glyph unicode="&#x2011;" horiz-adv-x="774" d="M14 438v81q29 116 117 116h556q117 -29 117 -116v-81q-29 -117 -117 -117h-556q-117 29 -117 117z" />
<glyph unicode="&#x2012;" horiz-adv-x="774" d="M14 438v81q29 116 117 116h556q117 -29 117 -116v-81q-29 -117 -117 -117h-556q-117 29 -117 117z" />
<glyph unicode="&#x2013;" d="M28 445v73q27 106 106 106h828q106 -27 106 -106v-73q-27 -105 -106 -105h-828q-106 26 -106 105z" />
<glyph unicode="&#x2014;" horiz-adv-x="2048" d="M7 537v66q53 95 210 95h1652q210 -24 210 -95v-66q-53 -95 -210 -95h-1652q-210 24 -210 95z" />
<glyph unicode="&#x2018;" horiz-adv-x="625" d="M156 1189v53q0 213 214 395l40 7h27q56 0 80 -87q0 -51 -160 -241q-28 -68 -34 -134q40 -100 40 -134q-15 -67 -67 -67h-13q-127 38 -127 208z" />
<glyph unicode="&#x2019;" horiz-adv-x="625" d="M143 1552q24 94 95 94h29q147 0 225 -334v-80q-42 -255 -182 -255q-56 18 -65 44v36q0 40 51 124q7 29 7 51q0 87 -153 269z" />
<glyph unicode="&#x201a;" horiz-adv-x="625" d="M7 -235q0 52 136 117q143 137 143 325q38 110 91 110h33q81 0 91 -143v-52q0 -211 -325 -409q-51 -26 -85 -26h-26q-58 8 -58 58v20z" />
<glyph unicode="&#x201c;" horiz-adv-x="985" d="M149 1147v58q0 233 234 433l44 7h30q61 0 88 -95q0 -56 -176 -264q-31 -75 -37 -147q44 -109 44 -146q-17 -73 -73 -73h-15q-139 41 -139 227zM471 1117q0 260 250 477q26 14 58 14h7q96 -13 96 -80v-37q0 -38 -169 -234q-51 -81 -51 -176q37 -67 37 -125 q-11 -73 -66 -73h-30q-132 47 -132 234z" />
<glyph unicode="&#x201d;" horiz-adv-x="985" d="M171 1561v21q0 68 107 86q129 0 235 -300q7 -37 7 -71v-57q-39 -228 -149 -228h-43q-10 0 -43 43v28q0 28 50 136v21q0 97 -157 278zM506 1603q23 93 93 93h28q144 0 221 -328v-78q-42 -249 -178 -249q-55 17 -64 42v36q0 39 50 121q7 28 7 50q0 85 -150 264z" />
<glyph unicode="&#x201e;" horiz-adv-x="985" d="M219 87v46l129 135q75 0 123 -70.5t48 -156.5q0 -108 -74 -231t-184 -123v55q73 43 87 188q0 115 -129 157zM579 86v46l129 135q75 0 123 -70.5t48 -156.5q0 -107 -74 -230t-184 -123v55q73 43 87 188q0 114 -129 156z" />
<glyph unicode="&#x2022;" d="M220 718q0 129 93.5 231t241.5 102q147 0 240 -103t93 -230t-94 -231t-241 -104q-148 0 -240.5 103.5t-92.5 231.5z" />
<glyph unicode="&#x2026;" horiz-adv-x="2048" d="M257 144q0 16 17 33l95 89q18 15 34 15q14 0 34 -17l93 -91q13 -17 13 -31q0 -15 -16 -32l-91 -94q-24 -21 -33 -21q-19 0 -34 15l-101 107q-11 14 -11 27zM939 144q0 16 17 33l95 89q18 15 34 15q14 0 34 -17l93 -91q13 -17 13 -31q0 -15 -16 -32l-91 -94 q-24 -21 -33 -21q-19 0 -34 15l-101 107q-11 14 -11 27zM1623 144q0 16 17 33l95 89q18 15 34 15q14 0 34 -17l93 -91q13 -17 13 -31q0 -15 -16 -32l-91 -94q-24 -21 -33 -21q-19 0 -34 15l-101 107q-11 14 -11 27z" />
<glyph unicode="&#x202f;" horiz-adv-x="423" />
<glyph unicode="&#x2039;" horiz-adv-x="676" d="M174 479l353 313h48v-47l-205 -266l205 -266v-47h-48z" />
<glyph unicode="&#x203a;" horiz-adv-x="676" d="M101 166v47l205 266l-205 266v47h48l353 -313l-353 -313h-48z" />
<glyph unicode="&#x205f;" horiz-adv-x="529" />
<glyph unicode="&#x20ac;" d="M-44 633l17 80h105q0 30 2 60h-90l17 80h83q19 109 68 217q80 176 238 280t333 104q94 0 142.5 -21t57.5 -21q21 0 21 44h84l89 -298h-89q-56 133 -152 178.5t-197 45.5q-150 -9 -257 -202q-79 -142 -100 -327h571l-17 -80h-561q-1 -30 -1 -60h546l-17 -80h-526 q18 -208 131 -383q133 -209 290 -209h2q130 2 221.5 72t93.5 185h81v-146q0 -56 -94.5 -117t-301.5 -64q-196 0 -353.5 105.5t-235.5 279.5q-62 136 -75 277h-126z" />
<glyph unicode="&#x2122;" horiz-adv-x="1497" />
<glyph unicode="&#x25fc;" horiz-adv-x="1430" d="M0 0v1430h1430v-1430h-1430z" />
</font>
</defs>
</svg>
